<?xml version="1.0" encoding="UTF-8" standalone="no"?>
<!-- Created with Inkscape (http://www.inkscape.org/) -->

<svg
   xmlns:dc="http://purl.org/dc/elements/1.1/"
   xmlns:cc="http://creativecommons.org/ns#"
   xmlns:rdf="http://www.w3.org/1999/02/22-rdf-syntax-ns#"
   xmlns:svg="http://www.w3.org/2000/svg"
   xmlns="http://www.w3.org/2000/svg"
   xmlns:sodipodi="http://sodipodi.sourceforge.net/DTD/sodipodi-0.dtd"
   xmlns:inkscape="http://www.inkscape.org/namespaces/inkscape"
   width="744.09448819"
   height="1052.3622047"
   id="svg2"
   version="1.1"
   inkscape:version="0.48.2 r9819"
   sodipodi:docname="ChemFightLogo.svg"
   inkscape:export-filename="E:\local_svn\ChemFight\ChemFightLogo60x60.png"
   inkscape:export-xdpi="5.6799998"
   inkscape:export-ydpi="5.6799998">
  <defs
     id="defs4">
    <filter
       inkscape:collect="always"
       id="filter3795">
      <feGaussianBlur
         inkscape:collect="always"
         stdDeviation="9.015"
         id="feGaussianBlur3797" />
    </filter>
  </defs>
  <sodipodi:namedview
     id="base"
     pagecolor="#ffffff"
     bordercolor="#666666"
     borderopacity="1.0"
     inkscape:pageopacity="0.0"
     inkscape:pageshadow="2"
     inkscape:zoom="0.175"
     inkscape:cx="371.61543"
     inkscape:cy="867.26403"
     inkscape:document-units="px"
     inkscape:current-layer="layer3"
     showgrid="false"
     showborder="false"
     inkscape:window-width="1401"
     inkscape:window-height="994"
     inkscape:window-x="25"
     inkscape:window-y="25"
     inkscape:window-maximized="0" />
  <metadata
     id="metadata7">
    <rdf:RDF>
      <cc:Work
         rdf:about="">
        <dc:format>image/svg+xml</dc:format>
        <dc:type
           rdf:resource="http://purl.org/dc/dcmitype/StillImage" />
        <dc:title></dc:title>
      </cc:Work>
    </rdf:RDF>
  </metadata>
  <g
     inkscape:groupmode="layer"
     id="layer3"
     inkscape:label="Background"
     style="display:none">
    <rect
       style="fill:#000000;fill-opacity:1;stroke:#000000;stroke-width:2;stroke-miterlimit:4;stroke-opacity:1;stroke-dasharray:none"
       id="rect3800"
       width="3411.4285"
       height="2657.1428"
       x="-1582.8572"
       y="-981.92352" />
  </g>
  <g
     inkscape:label="Logo"
     inkscape:groupmode="layer"
     id="layer1">
    <path
       style="fill:#000000;fill-opacity:1"
       d="M -521.4375 -167.625 C -604.5375 -167.625 -671.4375 -117.3041 -671.4375 -54.78125 L -671.4375 622.375 C -671.4375 684.89786 -604.5375 735.21875 -521.4375 735.21875 L 92.84375 735.21875 C 175.94374 735.21875 242.84375 684.89786 242.84375 622.375 L 242.84375 -54.78125 C 242.84375 -117.3041 175.94374 -167.625 92.84375 -167.625 L -521.4375 -167.625 z M -521.4375 -141.90625 L 92.84375 -141.90625 C 129.20335 -141.90625 161.49329 -130.69548 183.5625 -114.09375 C 205.63171 -97.492025 217.125 -76.87117 217.125 -54.78125 L 217.125 622.375 C 217.125 644.46493 205.63171 665.08578 183.5625 681.6875 C 161.49329 698.28922 129.20335 709.5 92.84375 709.5 L -521.4375 709.5 C -557.7971 709.5 -590.08705 698.28922 -612.15625 681.6875 C -634.22545 665.08578 -645.71875 644.46493 -645.71875 622.375 L -645.71875 -54.78125 C -645.71875 -76.871171 -634.22546 -97.492025 -612.15625 -114.09375 C -590.08704 -130.69547 -557.7971 -141.90625 -521.4375 -141.90625 z "
       id="rect3753" />
    <path
       transform="translate(0.01113892,-0.00613403)"
       style="fill:#ffee00;fill-opacity:1"
       d="m -521.4375,-141.90625 c -36.3596,0 -68.64954,11.21078 -90.71875,27.8125 -22.06921,16.601725 -33.5625,37.222579 -33.5625,59.3125 l 0,677.15625 c 0,22.08993 11.4933,42.71078 33.5625,59.3125 22.0692,16.60172 54.35915,27.8125 90.71875,27.8125 l 614.28125,0 c 36.3596,0 68.64954,-11.21078 90.71875,-27.8125 22.06921,-16.60172 33.5625,-37.22257 33.5625,-59.3125 l 0,-677.15625 c 0,-22.08992 -11.49329,-42.710775 -33.5625,-59.3125 -22.06921,-16.60173 -54.35915,-27.8125 -90.71875,-27.8125 l -614.28125,0 z"
       id="path3762" />
    <text
       xml:space="preserve"
       style="font-size:436.39312744px;font-style:normal;font-variant:normal;font-weight:bold;font-stretch:normal;line-height:125%;letter-spacing:0px;word-spacing:0px;fill:#000000;fill-opacity:1;stroke:none;font-family:Lucida Sans Unicode;-inkscape-font-specification:Lucida Sans Unicode Bold"
       x="-466.05612"
       y="451.74643"
       id="text3764"
       sodipodi:linespacing="125%"><tspan
         sodipodi:role="line"
         id="tspan3766"
         x="-466.05612"
         y="451.74643">Cf</tspan></text>
    <text
       xml:space="preserve"
       style="font-size:100.70906067px;font-style:normal;font-variant:normal;font-weight:normal;font-stretch:normal;line-height:125%;letter-spacing:0px;word-spacing:0px;fill:#000000;fill-opacity:1;stroke:none;font-family:Lucida Sans Unicode;-inkscape-font-specification:Lucida Sans Unicode"
       x="-495.02206"
       y="620.21106"
       id="text3768"
       sodipodi:linespacing="125%"><tspan
         sodipodi:role="line"
         id="tspan3770"
         x="-495.02206"
         y="620.21106">Chem Fight</tspan></text>
    <text
       xml:space="preserve"
       style="font-size:111.10729218px;font-style:normal;font-variant:normal;font-weight:normal;font-stretch:normal;line-height:125%;letter-spacing:0px;word-spacing:0px;fill:#000000;fill-opacity:1;stroke:none;font-family:Lucida Sans Unicode;-inkscape-font-specification:Lucida Sans Unicode"
       x="-614.3382"
       y="12.75841"
       id="text3772"
       sodipodi:linespacing="125%"><tspan
         sodipodi:role="line"
         id="tspan3774"
         x="-614.3382"
         y="12.75841">13K</tspan></text>
    <path
       id="path3867"
       style="opacity:0.51327431;fill:#ffffff;fill-opacity:1"
       d="m 242.67857,78.75 0,-139.53125 c 0,-3.658019 -0.24413,-7.27826 -0.72784,-10.84375 -0.48372,-3.56549 -1.20507,-7.075133 -2.1519,-10.53125 -0.94682,-3.456117 -2.12331,-6.857599 -3.51264,-10.1875 -1.38933,-3.329901 -2.99886,-6.594408 -4.81011,-9.78125 -1.81126,-3.18684 -3.83172,-6.28556 -6.04429,-9.3125 -2.21257,-3.02694 -4.62188,-5.96231 -7.21516,-8.8125 -2.59329,-2.85019 -5.36935,-5.62464 -8.32276,-8.28125 -2.95341,-2.65661 -6.07413,-5.21008 -9.36706,-7.65625 -3.29293,-2.44618 -6.74052,-4.79152 -10.34807,-7 -3.60754,-2.20848 -7.36839,-4.26742 -11.26578,-6.21875 -3.8974,-1.95133 -7.9261,-3.79401 -12.08857,-5.46875 -4.16247,-1.67474 -8.47691,-3.18381 -12.87971,-4.5625 -4.40279,-1.37869 -8.89426,-2.62431 -13.51261,-3.6875 -4.61834,-1.06319 -9.33639,-1.95925 -14.14552,-2.6875 -4.80913,-0.72825 -9.70836,-1.2824 -14.6835,-1.65625 -4.97514,-0.37385 -10.04178,-0.5625 -15.158177,-0.5625 l -622.054923,0 c -5.1164,0 -10.18304,0.18865 -15.15818,0.5625 -4.97514,0.37385 -9.87437,0.928 -14.6835,1.65625 -4.80912,0.72825 -9.52718,1.62431 -14.14552,2.6875 -4.61834,1.06319 -9.10982,2.30881 -13.51261,3.6875 -4.40279,1.37869 -8.71724,2.88776 -12.87971,4.5625 -4.16247,1.67474 -8.19117,3.51742 -12.08857,5.46875 -3.89739,1.95133 -7.65824,4.01027 -11.26578,6.21875 -3.60754,2.20848 -7.05514,4.55382 -10.34807,7 -3.29293,2.44617 -6.41365,4.99964 -9.36706,7.65625 -2.95341,2.65661 -5.72947,5.43106 -8.32275,8.28125 -2.59329,2.85019 -5.0026,5.78556 -7.21517,8.8125 -2.21257,3.02694 -4.23303,6.12566 -6.04429,9.3125 -1.81125,3.186842 -3.42077,6.451349 -4.81011,9.78125 -1.38933,3.329901 -2.56582,6.731383 -3.51264,10.1875 -0.94682,3.456117 -1.66818,6.96576 -2.15189,10.53125 -0.48372,3.56549 -0.72785,7.18573 -0.72785,10.84375 l 0,166.21875 c 4.60237,3.1638 9.54878,6.23102 14.71514,9.21875 l 0,-175.4375 c 0,-3.004035 0.20452,-5.991923 0.60127,-8.9375 0.39674,-2.945577 0.98755,-5.84463 1.77214,-8.71875 0.7846,-2.87412 1.74787,-5.710334 2.91138,-8.5 1.16351,-2.789666 2.5171,-5.526537 4.05062,-8.21875 1.53353,-2.692213 3.2636,-5.35574 5.15822,-7.9375 1.89461,-2.58176 3.95571,-5.10419 6.20251,-7.5625 2.24679,-2.45831 4.68839,-4.83438 7.27845,-7.15625 2.59007,-2.32187 5.33505,-4.57758 8.25947,-6.75 2.93649,-2.18139 6.02527,-4.26579 9.27212,-6.25 3.24686,-1.98421 6.65659,-3.85954 10.18984,-5.625 3.53326,-1.76546 7.1853,-3.41236 10.98098,-4.9375 3.79567,-1.52514 7.738,-2.92425 11.77211,-4.1875 4.03412,-1.26325 8.18808,-2.39521 12.43667,-3.375 4.24859,-0.97979 8.59884,-1.82524 13.03793,-2.5 4.4391,-0.67476 8.93865,-1.18308 13.54426,-1.53125 4.60562,-0.34817 9.30242,-0.53125 14.05059,-0.53125 l 622.054923,0 c 4.748167,0 9.444967,0.18309 14.050587,0.53125 4.60562,0.34816 9.10517,0.85649 13.54426,1.53125 4.43909,0.67476 8.78934,1.52021 13.03793,2.5 4.2486,0.97979 8.40256,2.11175 12.43667,3.375 4.03411,1.26325 7.97644,2.66236 11.77211,4.1875 3.79568,1.52514 7.44773,3.17204 10.98098,4.9375 3.53325,1.76546 6.94298,3.64079 10.18984,5.625 3.24685,1.98421 6.33563,4.06861 9.27212,6.25 2.92442,2.17242 5.6694,4.42813 8.25947,6.75 2.59007,2.32187 5.03166,4.69794 7.27845,7.15625 2.2468,2.45831 4.3079,4.98074 6.20252,7.5625 1.89461,2.58176 3.62468,5.245287 5.15821,7.9375 1.53352,2.692213 2.88711,5.429084 4.05062,8.21875 1.16351,2.789666 2.12678,5.62588 2.91138,8.5 0.78459,2.87412 1.3754,5.773173 1.77215,8.71875 0.39674,2.945577 0.60126,5.933465 0.60126,8.9375 l 0,153.21875 c 5.43429,-4.441261 10.33224,-9.000804 14.71514,-13.6875 z m -14.71514,13.6875 0,-153.21875 c 0,-3.004035 -0.20452,-5.991923 -0.60126,-8.9375 -0.39675,-2.945577 -0.98756,-5.84463 -1.77215,-8.71875 -0.7846,-2.87412 -1.74787,-5.710334 -2.91138,-8.5 -1.16351,-2.789666 -2.5171,-5.526537 -4.05062,-8.21875 -1.53353,-2.692213 -3.2636,-5.35574 -5.15821,-7.9375 -1.89462,-2.58176 -3.95572,-5.10419 -6.20252,-7.5625 -2.24679,-2.45831 -4.68838,-4.83438 -7.27845,-7.15625 -2.59007,-2.32187 -5.33505,-4.57758 -8.25947,-6.75 -2.93649,-2.18139 -6.02527,-4.26579 -9.27212,-6.25 -3.24686,-1.98421 -6.65659,-3.85954 -10.18984,-5.625 -3.53325,-1.76546 -7.1853,-3.41236 -10.98098,-4.9375 -3.79567,-1.52514 -7.738,-2.92425 -11.77211,-4.1875 -4.03411,-1.26325 -8.18807,-2.39521 -12.43667,-3.375 -4.24859,-0.97979 -8.59884,-1.82524 -13.03793,-2.5 -4.43909,-0.67476 -8.93864,-1.18309 -13.54426,-1.53125 -4.60562,-0.34816 -9.30242,-0.53125 -14.050587,-0.53125 l -622.054923,0 c -4.74817,0 -9.44497,0.18308 -14.05059,0.53125 -4.60561,0.34817 -9.10516,0.85649 -13.54426,1.53125 -4.43909,0.67476 -8.78934,1.52021 -13.03793,2.5 -4.24859,0.97979 -8.40255,2.11175 -12.43667,3.375 -4.03411,1.26325 -7.97644,2.66236 -11.77211,4.1875 -3.79568,1.52514 -7.44772,3.17204 -10.98098,4.9375 -3.53325,1.76546 -6.94298,3.64079 -10.18984,5.625 -3.24685,1.98421 -6.33563,4.06861 -9.27212,6.25 -2.92442,2.17242 -5.6694,4.42813 -8.25947,6.75 -2.59006,2.32187 -5.03166,4.69794 -7.27845,7.15625 -2.2468,2.45831 -4.3079,4.98074 -6.20251,7.5625 -1.89462,2.58176 -3.62469,5.245287 -5.15822,7.9375 -1.53352,2.692213 -2.88711,5.429084 -4.05062,8.21875 -1.16351,2.789666 -2.12678,5.62588 -2.91138,8.5 -0.78459,2.87412 -1.3754,5.773173 -1.77214,8.71875 -0.39675,2.945577 -0.60127,5.933465 -0.60127,8.9375 l 0,175.4375 c 59.0775,34.16474 154.03049,56.42581 263.67002,57.125 l 302.562305,1.9375 C 46.528401,174.59514 168.0905,141.36962 227.96343,92.4375 z"
       inkscape:connector-curvature="0" />
    <path
       sodipodi:type="inkscape:offset"
       inkscape:radius="-3.5329006"
       inkscape:original="M -521.4375 -167.625 C -604.5375 -167.625 -671.4375 -117.3041 -671.4375 -54.78125 L -671.4375 622.375 C -671.4375 684.89786 -604.5375 735.21875 -521.4375 735.21875 L 92.84375 735.21875 C 175.94374 735.21875 242.84375 684.89786 242.84375 622.375 L 242.84375 -54.78125 C 242.84375 -117.3041 175.94374 -167.625 92.84375 -167.625 L -521.4375 -167.625 z M -521.4375 -141.90625 L 92.84375 -141.90625 C 129.20335 -141.90625 161.49329 -130.69548 183.5625 -114.09375 C 205.63171 -97.492025 217.125 -76.87117 217.125 -54.78125 L 217.125 622.375 C 217.125 644.46493 205.63171 665.08578 183.5625 681.6875 C 161.49329 698.28922 129.20335 709.5 92.84375 709.5 L -521.4375 709.5 C -557.7971 709.5 -590.08705 698.28922 -612.15625 681.6875 C -634.22545 665.08578 -645.71875 644.46493 -645.71875 622.375 L -645.71875 -54.78125 C -645.71875 -76.871171 -634.22546 -97.492025 -612.15625 -114.09375 C -590.08704 -130.69547 -557.7971 -141.90625 -521.4375 -141.90625 z "
       style="fill:#999999;fill-opacity:1;filter:url(#filter3795)"
       id="path3793"
       d="m -521.4375,-164.09375 c -40.83689,0 -77.61165,12.40691 -104.03125,32.28125 -26.4196,19.87434 -42.4375,47.029903 -42.4375,77.03125 l 0,677.15625 c 0,30.00135 16.0179,57.15691 42.4375,77.03125 26.4196,19.87434 63.19436,32.28125 104.03125,32.28125 l 614.28125,0 c 40.83688,0 77.61165,-12.40691 104.03125,-32.28125 26.4196,-19.87434 42.4375,-47.0299 42.4375,-77.03125 l 0,-677.15625 c 0,-30.001347 -16.0179,-57.15691 -42.4375,-77.03125 -26.4196,-19.87434 -63.19437,-32.28125 -104.03125,-32.28125 l -614.28125,0 z m 0,18.65625 614.28125,0 c 37.0858,0 70.06217,11.39364 92.84375,28.53125 22.72142,17.092351 34.96875,38.809645 34.96875,62.125 l 0,677.15625 c 0,23.31536 -12.24733,45.03265 -34.96875,62.125 -22.78158,17.1376 -55.75795,28.53125 -92.84375,28.53125 l -614.28125,0 c -37.0858,0 -70.06218,-11.39365 -92.84375,-28.53125 C -637.00266,667.40765 -649.25,645.69037 -649.25,622.375 l 0,-677.15625 c 0,-23.315356 12.24733,-45.032649 34.96875,-62.125 22.78158,-17.1376 55.75795,-28.53125 92.84375,-28.53125 z" />
  </g>
  <g
     inkscape:groupmode="layer"
     id="layer2"
     inkscape:label="LightStroke"
     style="display:none">
    <rect
       style="opacity:0.51327431;fill:#ffffff;fill-opacity:1"
       id="rect3840"
       width="975.51984"
       height="383.97644"
       x="-710.5874"
       y="-202.81606"
       rx="338.35599"
       ry="146.03358"
       transform="matrix(0.99997915,0.00645778,-0.10337783,0.99464216,0,0)" />
  </g>
</svg>
